/* XPM */
static char * gtk-splitter_xpm[] = {
"32 32 102 2",
"  	c None",
". 	c #FFFFFF",
"+ 	c #ECECEC",
"@ 	c #D7D7D7",
"# 	c #B9B9B9",
"$ 	c #E0E0E0",
"% 	c #000000",
"& 	c #010101",
"* 	c #747474",
"= 	c #878787",
"- 	c #7C7C7C",
"; 	c #5D5D5D",
"> 	c #FCFCFC",
", 	c #ABABAB",
"' 	c #A4A4A4",
") 	c #A6A6A6",
"! 	c #ADADAD",
"~ 	c #E3E3E3",
"{ 	c #1D1D1D",
"] 	c #8E8E8E",
"^ 	c #AAAAAA",
"/ 	c #FBFBFB",
"( 	c #9B9B9B",
"_ 	c #131313",
": 	c #999999",
"< 	c #555555",
"[ 	c #646464",
"} 	c #525252",
"| 	c #BABABA",
"1 	c #7F7F7F",
"2 	c #404040",
"3 	c #545454",
"4 	c #F9F9F9",
"5 	c #C5C5C5",
"6 	c #787878",
"7 	c #3C3C3C",
"8 	c #4F4F4F",
"9 	c #A9A9A9",
"0 	c #F1F1F1",
"a 	c #A1A1A1",
"b 	c #626262",
"c 	c #414141",
"d 	c #A7A7A7",
"e 	c #F7F7F7",
"f 	c #949494",
"g 	c #121212",
"h 	c #BBBBBB",
"i 	c #DBDBDB",
"j 	c #DDDDDD",
"k 	c #C9C9C9",
"l 	c #BFBFBF",
"m 	c #DFDFDF",
"n 	c #FEFEFE",
"o 	c #C1C1C1",
"p 	c #A0A0A0",
"q 	c #CBCBCB",
"r 	c #FDFDFD",
"s 	c #E1E1E1",
"t 	c #969696",
"u 	c #B6B6B6",
"v 	c #F8F8F8",
"w 	c #393939",
"x 	c #9A9A9A",
"y 	c #151515",
"z 	c #919191",
"A 	c #D1D1D1",
"B 	c #4C4C4C",
"C 	c #9F9F9F",
"D 	c #797979",
"E 	c #434343",
"F 	c #C7C7C7",
"G 	c #6B6B6B",
"H 	c #4A4A4A",
"I 	c #777777",
"J 	c #141414",
"K 	c #B8B8B8",
"L 	c #BCBCBC",
"M 	c #CFCFCF",
"N 	c #C6C6C6",
"O 	c #BEBEBE",
"P 	c #D3D3D3",
"Q 	c #B3B3B3",
"R 	c #E2E2E2",
"S 	c #D2D2D2",
"T 	c #818181",
"U 	c #3B3B3B",
"V 	c #DCDCDC",
"W 	c #FAFAFA",
"X 	c #7D7D7D",
"Y 	c #363636",
"Z 	c #A5A5A5",
"` 	c #858585",
" .	c #313131",
"..	c #323232",
"+.	c #D8D8D8",
"@.	c #F3F3F3",
"#.	c #939393",
"$.	c #7A7A7A",
"%.	c #262626",
"&.	c #090909",
"*.	c #030303",
"=.	c #EEEEEE",
". . . . . . . . . . . . . . . . . . . . . . . . . . . . . . . . ",
". . . . . . . . . . . . . . + @ # $ . . . . . . . . . . . . . . ",
". . % % % % % % % % % % % & * = - ; % % % % % % % % % % % % . . ",
". . % . . . . . . . . . . > , ' ) ! . . . . . . . . . . . % . . ",
". . % . . ~ { % ] . ^ % ^ / ( % _ : ~ { % ] . ^ % ^ . . . % . . ",
". . % . . < ] ~ % . . < ^ . % ) [ } < ] ~ % . . < ^ . . . % . . ",
". . % . . < ^ . % . . < ^ . % | 1 2 3 ^ . % . . < ^ . . . % . . ",
". . % . . < ^ . % . . < ^ 4 % 5 6 7 8 ^ . % . . < ^ . . . % . . ",
". . % . . < ] . % . . < 9 0 % a b c } ] . % . . < ^ . . . % . . ",
". . % . . ~ { % ^ . . < d e f % g h i { % ^ . . < ^ . . . % . . ",
". . % . . . . . . . . . > 4 j k l m 4 . . . . . . . . . . % . . ",
". . % . . . . . . . . n > / + o p q r . . . . . . . . . . % . . ",
". . % . . . . . . . . n > 4 s ! t u v . . . . . . . . . . % . . ",
". . % . . . < % . . < % w r x % y z A { % ] . ^ % ^ . . . % . . ",
". . % . . . . % . ^ w . w ^ % x } B < ] ~ % . . < ^ . . . % . . ",
". . % . . . . % . ^ < . < C % k D E < ^ . % . . < ^ . . . % . . ",
". . % . . . . % . ^ < . < ^ % F G H < ^ . % . . < ^ . . . % . . ",
". . % . . . . % . ^ w . < ^ % C I H < ] . % . . < ^ . . . % . . ",
". . % . . . . % . . < % < . t % J K ~ { % ^ . . < ^ . . . % . . ",
". . % . . . . . . . . . . . ~ q L M . . . . . . . . . . . % . . ",
". . % . . . . . . . . . . . m N O N . . . . . . . . . . . % . . ",
". . % . . . . . . . . . . . + P Q @ . . . . . . . . . . . % . . ",
". . % . . . < % . . < % w . R % 2 S v < % . . < % w . . . % . . ",
". . % . . . . % . ^ w . w ^ ~ T U V W . % . ^ w . w ^ . . % . . ",
". . % . . . . % . ^ < . < 9 $ X Y F . . % . ^ < . < ^ . . % . . ",
". . % . . . . % . ^ < . < Z $ `  .A n . % . ^ < . < ^ . . % . . ",
". . % . . . . % . ^ w . < Z ~ X ..j . . % . ^ w . < ^ . . % . . ",
". . % . . . . % . . < % < . n - w +.@.. % . . < % < . . . % . . ",
". . % . . . . . . . . . . . . #.I N + e . . . . . . . . . % . . ",
". . % % % % % % % % % % % % % ` $.%.&.*.% % % % % % % % % % . . ",
". . . . . . . . . . . . . . . +.=.. . . . . . . . . . . . . . . ",
". . . . . . . . . . . . . . . . . . . . . . . . . . . . . . . . "};
